<?xml version="1.0" encoding="utf-8"?>
<!-- Generator: Adobe Illustrator 23.0.1, SVG Export Plug-In . SVG Version: 6.00 Build 0)  -->
<svg version="1.1" id="Layer_1" xmlns="http://www.w3.org/2000/svg" xmlns:xlink="http://www.w3.org/1999/xlink" x="0px" y="0px"
	 viewBox="0 0 64 64" style="enable-background:new 0 0 64 64;" xml:space="preserve">
<style type="text/css">
	.st0{fill:#1E76C0;}
	.st1{fill:#706D6E;}
	.st2{fill:#5B6065;}
</style>
<g>
	<path id="path22_1_" class="st0" d="M8.9,30.8c0.5,0,1-0.2,1.5-0.4c0.5-0.2,0.9-0.5,1.2-0.9c0.3-0.4,0.5-0.9,0.5-1.5
		c0-0.9-0.3-1.7-0.9-2.2c-0.6-0.5-1.3-0.8-2.1-0.8c-1.1,0-2,0.4-2.5,1.1c-0.6,0.7-0.8,1.7-0.8,2.8H1.3c0-1.1,0.2-2.1,0.6-3.1
		c0.4-0.9,0.9-1.7,1.5-2.4c0.7-0.7,1.4-1.2,2.4-1.5c0.9-0.4,1.9-0.5,3.1-0.5c0.9,0,1.7,0.1,2.6,0.4c0.9,0.3,1.7,0.7,2.4,1.2
		c0.7,0.5,1.3,1.2,1.7,1.9c0.4,0.7,0.7,1.6,0.7,2.6c0,1.1-0.3,2-0.8,2.8c-0.5,0.8-1.3,1.4-2.3,1.7v0.1c1.2,0.3,2.1,0.9,2.8,1.7
		c0.7,0.9,1,2,1,3.2c0,1.1-0.2,2.2-0.7,3.1c-0.4,0.9-1,1.6-1.8,2.2C13.8,43,13,43.4,12,43.8c-1,0.3-2,0.5-3.1,0.5
		c-1.2,0-2.3-0.2-3.4-0.5c-1-0.4-1.9-0.9-2.6-1.5c-0.7-0.7-1.3-1.5-1.6-2.5c-0.4-1-0.6-2.1-0.5-3.4H5c0,0.6,0.1,1.1,0.3,1.7
		c0.2,0.5,0.4,1,0.7,1.4c0.3,0.4,0.7,0.7,1.2,0.9c0.5,0.2,1,0.3,1.7,0.3c1,0,1.8-0.3,2.5-0.9c0.7-0.6,1-1.4,1-2.5
		c0-0.8-0.2-1.5-0.5-1.9c-0.3-0.4-0.7-0.8-1.2-0.9c-0.5-0.2-1-0.3-1.6-0.3c-0.6,0-1.2,0-1.7,0v-3.1C7.8,30.8,8.3,30.8,8.9,30.8"/>
	<path id="path26_1_" class="st1" d="M29.9,24.4c2.5,0,4.9,1,6.7,2.7l0.5,0.5v-3.7l-0.1-0.1c-2.1-1.4-4.3-2.1-6.9-2.1
		c-6.7,0-12.1,5.1-12.1,11.4c0,6.2,5.4,11.2,12.1,11.2c2.4,0,4.9-0.8,6.9-2.1L37,42v-3.7l-0.5,0.4c-1.9,1.7-4.3,2.7-6.6,2.7
		c-4.8,0-8.9-3.9-8.9-8.5C21,28.3,25.1,24.4,29.9,24.4"/>
	<path id="path30_1_" class="st0" d="M37.1,28.6v8.7l3.8-4.5C40.9,32.8,37.1,28.6,37.1,28.6z"/>
	<path id="path34_1_" class="st1" d="M60.1,44l-9-10.9l9-10.9h-4.8l-6.6,8l-6.6-8h-4.7l9,10.9l-9,10.9h4.7l6.6-8.1l6.6,8.1H60.1z"/>
	<path id="path38_1_" class="st2" d="M61.9,42.6c0.2,0,0.5,0,0.5-0.2c0-0.1-0.2-0.2-0.3-0.2h-0.4v0.3L61.9,42.6L61.9,42.6z
		 M62.6,43.5h-0.2l-0.4-0.6h-0.2v0.6h-0.2v-1.3h0.6c0.2,0,0.5,0.1,0.5,0.4c0,0.3-0.2,0.4-0.4,0.4L62.6,43.5z M63,42.8
		c0-0.6-0.5-1-1-1c-0.6,0-1,0.5-1,1s0.5,1,1,1C62.5,43.8,63,43.4,63,42.8 M60.7,42.8c0-0.7,0.5-1.2,1.2-1.2c0.7,0,1.2,0.5,1.2,1.2
		S62.7,44,62,44C61.3,44,60.7,43.5,60.7,42.8"/>
</g>
</svg>
