<?xml version="1.0" encoding="utf-8"?>
<!-- Generator: Adobe Illustrator 23.0.1, SVG Export Plug-In . SVG Version: 6.00 Build 0)  -->
<svg version="1.1" id="Layer_1" xmlns="http://www.w3.org/2000/svg" xmlns:xlink="http://www.w3.org/1999/xlink" x="0px" y="0px"
	 viewBox="0 0 64 64" style="enable-background:new 0 0 64 64;" xml:space="preserve">
<style type="text/css">
	.st0{fill:#8A8A8E;}
	.st1{fill:#F68F1E;}
	.st2{fill:#FFFFFF;}
	.st3{fill-rule:evenodd;clip-rule:evenodd;fill:#F68F1E;stroke:#F68F1E;}
	.st4{fill-rule:evenodd;clip-rule:evenodd;fill:#F68F1E;}
</style>
<g>
	
		<sodipodi:namedview  bordercolor="#666666" borderopacity="1.0" gridtolerance="10.0" guidetolerance="10.0" height="383.11px" id="base" objecttolerance="10.0" pagecolor="#ffffff" showguides="true" width="650.15px">
		</sodipodi:namedview>
	<path id="path2325_1_" class="st0" d="M16.9,45.9c-0.5-0.1-1.1-0.5-1.5-0.8c-0.2-0.2-0.5-0.5-0.6-0.7c-0.1-0.2-0.2-0.6-0.2-0.8
		L14.5,43l0.9,0l0.9,0l0.2,0.5c0.2,0.4,0.3,0.5,0.7,0.7c0.3,0.2,0.6,0.2,1,0.2c0.9,0,1.4-0.2,1.7-0.5c0.2-0.2,0.2-0.4,0.2-0.6
		c0-0.2-0.1-0.4-0.2-0.5c-0.1-0.1-0.3-0.2-0.5-0.3c-0.2-0.1-1-0.3-1.6-0.5c-0.7-0.2-1.4-0.4-1.6-0.4c-0.6-0.3-1-0.6-1.3-1.1
		c-0.2-0.4-0.3-0.6-0.3-1.1c0-0.4,0.1-0.7,0.2-1c0.1-0.2,0.3-0.5,0.5-0.6s0.5-0.3,0.7-0.5c0.5-0.3,1.5-0.5,2.2-0.5
		c0.3,0,0.8,0,1,0.1c0.3,0.1,0.7,0.2,1,0.3c0.3,0.1,0.6,0.4,0.8,0.5c0.4,0.4,0.8,1.2,0.8,1.5l0,0.2l-1,0l-1,0l-0.2-0.4
		c-0.1-0.2-0.3-0.4-0.6-0.5c-0.3-0.1-0.6-0.2-1-0.2c-0.3,0-0.8,0.1-1,0.2c-0.2,0.1-0.4,0.3-0.5,0.4c-0.1,0.1-0.1,0.3,0,0.5
		s0.2,0.3,0.3,0.4c0.2,0.1,0.8,0.3,1.3,0.4c1.8,0.4,2.6,0.7,3,1c0.2,0.2,0.5,0.5,0.6,0.7c0.2,0.3,0.2,0.6,0.2,1.1
		c0,0.5-0.1,0.7-0.3,1.2c-0.2,0.3-0.4,0.6-0.7,0.8c-0.2,0.2-0.7,0.4-1,0.5c-0.5,0.2-0.8,0.2-1.8,0.2C17.9,45.9,17.1,45.9,16.9,45.9z
		"/>
	<path id="path2323_1_" class="st0" d="M31.1,36.9c-0.6,0-1.2,0.1-1.7,0.4c-0.3,0.2-0.8,0.5-1.1,0.8c-0.3,0.3-0.6,0.7-0.8,1.1
		c-0.2,0.3-0.4,0.9-0.4,1.3c-0.1,0.5-0.1,0.9-0.1,1.5c0,0.4,0.1,1,0.2,1.3c0.1,0.3,0.4,0.8,0.6,1.1s0.6,0.7,0.8,0.9
		c0.3,0.2,0.7,0.4,1.1,0.6c0.5,0.2,0.8,0.2,1.7,0.2l1.1,0l0.6-0.3c0.4-0.2,0.8-0.5,1.1-0.7c0.4-0.4,0.9-1.3,0.9-1.7V43l-0.9,0
		l-0.9,0L33,43.5c-0.2,0.3-0.4,0.6-0.7,0.7c-0.5,0.2-1.4,0.3-1.9,0.2c-0.2-0.1-0.5-0.2-0.7-0.4s-0.4-0.5-0.5-0.7
		C29.1,43,29,42.7,29,42.4l-0.1-0.5h3.2h3.2v-0.6c0-0.4-0.1-0.9-0.1-1.2s-0.3-0.8-0.4-1c-0.1-0.3-0.4-0.7-0.7-0.9
		c-0.2-0.2-0.7-0.6-1-0.7c-0.3-0.2-0.8-0.3-1.1-0.4C31.7,36.9,31.4,36.9,31.1,36.9z M31.2,38.4c0.1,0,0.3,0,0.4,0.1
		c0.2,0.1,0.5,0.2,0.7,0.3c0.2,0.1,0.4,0.4,0.6,0.6c0.1,0.2,0.3,0.6,0.3,0.8l0.1,0.4h-2.2h-2.2v-0.3c0-0.1,0.1-0.5,0.3-0.8
		c0.2-0.3,0.4-0.6,0.6-0.8c0.2-0.2,0.6-0.3,0.9-0.4C30.9,38.4,31,38.4,31.2,38.4z"/>
	<path id="path2319_1_" class="st0" d="M46.5,45.8c-0.3-0.1-0.7-0.3-0.9-0.4c-0.4-0.3-0.8-0.7-1-1.2c-0.1-0.2-0.2-0.5-0.2-0.7
		L44.3,43h1h1l0.1,0.3c0,0.2,0.2,0.4,0.4,0.6c0.2,0.2,0.5,0.3,0.6,0.4c0.4,0.1,1.4,0.1,1.9,0c0.2-0.1,0.5-0.2,0.6-0.3
		c0.2-0.2,0.2-0.3,0.2-0.6c0-0.3-0.1-0.4-0.3-0.6c-0.1-0.1-0.4-0.3-0.5-0.4c-0.1-0.1-0.9-0.2-1.6-0.4s-1.5-0.4-1.8-0.5
		s-0.7-0.4-0.8-0.6c-0.4-0.5-0.6-1.2-0.5-1.8c0-0.2,0.2-0.6,0.4-0.9c0.2-0.3,0.5-0.5,0.9-0.8c0.4-0.2,0.9-0.3,1.5-0.4
		c0.6-0.1,1-0.1,1.6,0c0.4,0.1,1,0.2,1.3,0.4c0.3,0.1,0.7,0.4,0.8,0.6c0.3,0.4,0.6,0.9,0.7,1.3l0.1,0.3h-1.1h-1.1l-0.1-0.2
		c0-0.1-0.2-0.3-0.3-0.5c-0.2-0.2-0.4-0.3-0.8-0.4c-0.4-0.1-0.7-0.1-1.1,0c-0.3,0.1-0.6,0.2-0.8,0.3c-0.3,0.3-0.3,0.7,0,1
		c0.1,0.1,0.3,0.2,0.4,0.3s0.8,0.2,1.5,0.4s1.6,0.4,1.9,0.5c0.3,0.1,0.7,0.4,0.9,0.7c0.2,0.2,0.4,0.6,0.5,0.8
		c0.1,0.2,0.1,0.6,0.1,0.9c0,0.3-0.1,0.7-0.2,0.9c-0.1,0.2-0.4,0.6-0.6,0.8c-0.2,0.2-0.7,0.5-1,0.6c-0.5,0.2-0.8,0.2-1.8,0.3
		C47.3,45.9,47,45.9,46.5,45.8z"/>
	<path id="path2317_1_" class="st0" d="M24.8,45.7c-0.2,0-0.5-0.2-0.7-0.3c-0.2-0.1-0.4-0.3-0.5-0.5l-0.2-0.4l0-3l0-3h-0.7h-0.7
		v-0.7v-0.7h0.7h0.7v-1.3v-1.3h1h1l0,1.3l0,1.3l0.8,0l0.8,0v0.7v0.7h-0.9h-0.9l0,2.6l0,2.6l0.2,0.2c0.2,0.2,0.3,0.2,0.8,0.2l0.6,0
		V45v0.7l-0.4,0.1C26,45.9,25.2,45.9,24.8,45.7z"/>
	<path id="path2315_1_" class="st0" d="M9.9,33.8c-0.2,0-0.4,0-1,0l-1.1,0l-2.1,5.5c-1.2,3-2.2,5.7-2.3,6l-0.2,0.5l1.1,0l1.1,0
		l0.5-1.5l0.5-1.5l2.3,0l2.3,0l0.4,1.1c0.2,0.6,0.5,1.3,0.6,1.6l0.2,0.5h1.1c1.2,0,1.2,0.1,1.1-0.2c-0.1-0.3-4.4-11.4-4.5-11.6
		C10.1,33.8,10.2,33.8,9.9,33.8z M9,36c0,0,0.2,0.4,0.3,0.9c0.2,0.5,0.6,1.6,0.9,2.5l0.6,1.6H9H7.2l0.3-0.8C8.1,38.5,8.9,36,9,36z"
		/>
	<path id="path2311_1_" class="st0" d="M36.1,41.4v-4.3H37h0.9v0.7v0.7l0.3-0.5c0.2-0.3,0.5-0.6,0.8-0.8c0.3-0.2,0.6-0.4,0.8-0.4
		c0.2-0.1,0.6-0.1,0.8-0.1l0.4,0l0,0.9l0,0.9l-0.7,0c-0.5,0-0.8,0-1.1,0.2c-0.2,0.1-0.6,0.4-0.7,0.5c-0.1,0.2-0.3,0.5-0.4,0.8
		c-0.2,0.5-0.2,0.8-0.2,3l0,2.5h-0.9h-0.9V41.4z"/>
	<path id="path2309_1_" class="st0" d="M41.7,41.4v-4.3h1h1v4.3v4.3h-1h-1V41.4z"/>
	<path id="path2307_1_" class="st0" d="M52.7,39.8l0-6h1h1l0,3.3l0,3.3l1.6-1.7l1.6-1.7l1.2,0l1.2,0l-1.6,1.6l-1.6,1.6l1.8,2.7
		c1,1.5,1.8,2.7,1.8,2.7s0.2,0-1.2,0h-1.2l-1.2-2c-0.7-1.1-1.3-2-1.3-2.1c0-0.1-0.3,0.1-0.6,0.4l-0.5,0.5v1.6v1.6h-1h-1L52.7,39.8z"
		/>
	<path id="path2303_1_" class="st1" d="M26,14c-1.5,0-2.6,0.2-3.9,0.6c-0.4,0.1-1.1,0.4-1.5,0.6s-1.1,0.6-1.6,0.9
		c-0.5,0.3-1.3,0.9-1.7,1.3c-0.4,0.4-1.1,1-1.5,1.5c-0.4,0.4-0.9,1.1-1.2,1.5c-0.3,0.4-0.5,0.7-0.5,0.7c-0.1-0.1,0.7-1.5,1.2-2.3
		l0.6-0.8l-0.6,0.6c-0.3,0.3-0.9,1-1.3,1.5c-0.4,0.5-0.9,1.3-1.1,1.7c-0.2,0.4-0.6,1.2-0.8,1.7l-0.3,0.9v1.6v1.6l0.3,0.8
		c0.1,0.4,0.4,1,0.6,1.4c0.2,0.3,0.7,0.9,1,1.3s0.9,0.9,1.3,1.1c1,0.7,2.1,1.1,3.4,1.3c0.4,0.1,1.3,0.1,2,0.1s1.6-0.1,2.2-0.1
		c0.6-0.1,1.5-0.3,2.1-0.5c0.6-0.2,1.6-0.5,2.1-0.8l1-0.4l0.6,0.2c0.7,0.2,4,1,4,0.9c0,0-0.4-0.8-0.8-1.7l-0.9-1.7l0.8-0.9
		c0.4-0.5,1-1.3,1.3-1.7c0.3-0.4,0.7-1.2,1-1.8c0.3-0.5,0.5-1.3,0.7-1.7s0.2-1.1,0.3-1.6c0.1-0.6,0.1-1.1,0-1.7
		c-0.1-0.5-0.2-1.1-0.3-1.5c-0.1-0.4-0.4-1-0.6-1.4c-0.5-0.9-1.6-2.1-2.4-2.5c-0.3-0.2-0.6-0.3-0.7-0.3c0,0,0.2,0.2,0.4,0.4
		c0.5,0.4,1.2,1.2,1.5,1.8l0.2,0.4L32.6,17c-0.1-0.2-0.5-0.6-0.9-1c-0.6-0.6-0.9-0.8-1.5-1.1c-0.5-0.3-1.1-0.5-1.8-0.6
		C27.6,14.1,27,14,26,14z M25.9,15.1c1,0,1.5,0,2.1,0.2c0.4,0.1,1,0.3,1.4,0.5c0.5,0.2,0.9,0.5,1.4,1c0.6,0.6,0.8,0.9,1.1,1.5
		c0.2,0.4,0.5,1.1,0.5,1.5c0.1,0.4,0.1,1,0.1,1.4c0,1.3-0.4,2.7-1,4.1c-0.2,0.4-0.5,1-0.7,1.3s-0.7,1-1.2,1.4
		c-0.4,0.4-0.7,0.8-0.7,0.8s0.3,0.6,0.8,1.2c0.4,0.6,0.8,1.2,0.8,1.3c0,0,0,0.1-0.1,0.1c0,0-0.7-0.2-1.4-0.5
		c-0.8-0.3-1.5-0.5-1.6-0.5c-0.1,0-0.5,0.1-0.8,0.2c-0.9,0.4-2.7,0.9-3.6,1.1c-0.5,0.1-1.3,0.1-1.7,0.1c-1.5,0-2.7-0.3-4-0.9
		c-0.8-0.4-1-0.6-1.7-1.3c-0.6-0.6-0.9-1-1.2-1.5c-0.2-0.4-0.4-1-0.5-1.3c-0.2-0.8-0.2-2.2,0-3.1c0.1-0.4,0.4-1.2,0.7-1.7
		c0.3-0.5,0.7-1.3,1.1-1.7c0.3-0.4,1-1.1,1.4-1.6c0.9-0.9,2-1.7,3.1-2.2c0.9-0.5,2.2-0.9,3.3-1.1C24.3,15.1,24.9,15.1,25.9,15.1z"/>
	<path id="path2299_1_" class="st1" d="M21.9,27.3l0-1.8l-1.6,1c-0.9,0.5-1.6,1-1.6,0.9c-0.1-0.1-1.3-2.1-1.3-2.2c0,0,0.7-0.5,1.6-1
		s1.6-0.9,1.6-0.9s-0.7-0.5-1.6-0.9s-1.6-0.9-1.6-1c0-0.1,1.2-2.1,1.3-2.2c0,0,0.7,0.4,1.4,0.9c0.8,0.5,1.5,0.9,1.6,1
		c0.1,0,0.1-0.2,0.1-1.8l0-1.8h1.3h1.3l-0.1,1.9l-0.1,1.9l0.7-0.4c0.4-0.2,1-0.7,1.5-0.9c0.4-0.3,0.9-0.6,0.9-0.6
		c0.1,0,0.3,0.3,0.8,1.1c0.4,0.6,0.7,1.1,0.7,1.1c0,0-0.6,0.4-1.4,0.8c-0.8,0.4-1.5,0.9-1.6,0.9l-0.2,0.1l1.5,0.9
		c0.8,0.5,1.6,0.9,1.6,0.9c0.1,0-0.1,0.4-0.6,1.2c-0.6,1-0.7,1.1-0.8,1c-0.1,0-0.7-0.4-1.5-0.9s-1.3-0.8-1.4-0.9
		c-0.1-0.1-0.1,0.2-0.1,1.8l0.1,1.8h-1.3h-1.3L21.9,27.3z"/>
	<path id="path2279_1_" class="st2" d="M14.1,21.3C14.1,21.3,14.1,21.2,14.1,21.3C14,21.2,14,21.3,14.1,21.3
		C14,21.3,14,21.3,14.1,21.3C14.1,21.3,14.1,21.3,14.1,21.3z"/>
	<path id="flowRoot2289_1_" class="st0" d="M58.6,36h0.8v0.2h-0.3V37h-0.2v-0.7h-0.3V36z M59.5,36h0.3l0.1,0.6L60,36h0.3v1h-0.2
		v-0.7L60,37h-0.2l-0.2-0.7V37h-0.2V36z"/>
	<path id="path2329_1_" class="st3" d="M12,28.3c-0.3-0.9-0.5-1.5-0.5-2.4c0-0.9,0.1-1.2,0.5-2.4L12,28.3z"/>
	<path id="path2339_1_" class="st4" d="M11.7,27.2c-0.1-0.6-0.2-1.5-0.1-2c0-0.1,0-0.2,0-0.2l0-0.1l0,0.6c0,0.3,0,0.9,0,1.2l0,0.6
		L11.7,27.2z"/>
</g>
</svg>
