<?xml version="1.0" encoding="utf-8"?>
<!-- Generator: Adobe Illustrator 23.0.1, SVG Export Plug-In . SVG Version: 6.00 Build 0)  -->
<svg version="1.1" id="Layer_1" xmlns="http://www.w3.org/2000/svg" xmlns:xlink="http://www.w3.org/1999/xlink" x="0px" y="0px"
	 viewBox="0 0 100 100" style="enable-background:new 0 0 100 100;" xml:space="preserve">
<style type="text/css">
	.st0{fill:#252F3E;}
	.st1{fill-rule:evenodd;clip-rule:evenodd;fill:#FF9900;}
</style>
<g>
	<path class="st0" d="M30.2,44.8c0,1.1,0.1,2.1,0.3,2.7c0.2,0.7,0.6,1.4,1,2.2c0.2,0.2,0.2,0.5,0.2,0.7c0,0.3-0.2,0.6-0.6,0.9
		l-1.9,1.3c-0.3,0.2-0.6,0.3-0.8,0.3c-0.3,0-0.6-0.2-0.9-0.4c-0.4-0.5-0.8-1-1.1-1.4c-0.3-0.5-0.6-1.1-1-1.8c-2.4,2.8-5.4,4.2-9,4.2
		c-2.6,0-4.6-0.7-6.2-2.2s-2.3-3.4-2.3-5.9c0-2.6,0.9-4.7,2.8-6.3s4.4-2.4,7.5-2.4c1,0,2.1,0.1,3.3,0.2c1.1,0.2,2.3,0.4,3.5,0.7
		v-2.2c0-2.3-0.5-4-1.4-4.9c-1-1-2.6-1.4-5-1.4c-1.1,0-2.2,0.1-3.3,0.4c-1.1,0.3-2.2,0.6-3.3,1c-0.5,0.2-0.9,0.3-1.1,0.4
		s-0.4,0.1-0.5,0.1c-0.4,0-0.6-0.3-0.6-1v-1.5c0-0.5,0.1-0.9,0.2-1.1c0.2-0.2,0.4-0.4,0.9-0.6c1.1-0.6,2.4-1,3.9-1.4
		c1.5-0.4,3.1-0.6,4.8-0.6c3.7,0,6.3,0.8,8.1,2.5c1.7,1.7,2.6,4.2,2.6,7.6L30.2,44.8L30.2,44.8L30.2,44.8z M17.7,49.5
		c1,0,2.1-0.2,3.2-0.6c1.1-0.4,2.1-1,2.9-2c0.5-0.6,0.9-1.2,1-2c0.2-0.7,0.3-1.6,0.3-2.7V41c-0.9-0.2-1.8-0.4-2.8-0.5
		c-1-0.1-1.9-0.2-2.9-0.2c-2.1,0-3.6,0.4-4.6,1.2c-1,0.8-1.5,2-1.5,3.5c0,1.4,0.4,2.5,1.1,3.3C15.2,49.1,16.3,49.5,17.7,49.5
		C17.7,49.5,17.7,49.5,17.7,49.5z M42.4,52.8c-0.6,0-0.9-0.1-1.2-0.3c-0.2-0.2-0.5-0.6-0.6-1.2l-7.2-23.8c-0.2-0.6-0.3-1-0.3-1.2
		c0-0.5,0.2-0.8,0.7-0.8h3c0.6,0,1,0.1,1.2,0.3c0.2,0.2,0.4,0.6,0.6,1.2l5.2,20.4L48.6,27c0.2-0.6,0.3-1,0.6-1.2
		c0.2-0.2,0.7-0.3,1.2-0.3h2.5c0.6,0,1,0.1,1.2,0.3c0.2,0.2,0.5,0.6,0.6,1.2l4.9,20.6L64.9,27c0.2-0.6,0.4-1,0.6-1.2
		c0.2-0.2,0.6-0.3,1.2-0.3h2.9c0.5,0,0.8,0.2,0.8,0.8c0,0.2,0,0.3-0.1,0.5c0,0.2-0.1,0.4-0.2,0.8l-7.4,23.8c-0.2,0.6-0.4,1-0.6,1.2
		c-0.2,0.2-0.6,0.3-1.2,0.3h-2.6c-0.6,0-1-0.1-1.2-0.3c-0.2-0.2-0.5-0.6-0.6-1.2l-4.8-19.9l-4.7,19.8c-0.2,0.6-0.3,1-0.6,1.2
		c-0.2,0.2-0.7,0.3-1.2,0.3L42.4,52.8C42.4,52.8,42.4,52.8,42.4,52.8z M81.9,53.7c-1.6,0-3.2-0.2-4.7-0.6c-1.5-0.4-2.7-0.8-3.5-1.2
		c-0.5-0.3-0.8-0.6-1-0.9c-0.1-0.3-0.2-0.6-0.2-0.9v-1.6c0-0.6,0.2-1,0.7-1c0.2,0,0.4,0,0.6,0.1c0.2,0.1,0.5,0.2,0.8,0.3
		c1,0.5,2.2,0.8,3.4,1.1c1.2,0.2,2.4,0.4,3.7,0.4c1.9,0,3.4-0.3,4.5-1c1-0.7,1.6-1.7,1.6-2.9c0-0.9-0.3-1.6-0.8-2.2
		c-0.6-0.6-1.6-1.1-3.1-1.6l-4.5-1.4c-2.2-0.7-3.9-1.8-4.9-3.1c-1-1.4-1.5-2.9-1.5-4.5c0-1.3,0.3-2.4,0.8-3.4c0.6-1,1.3-1.8,2.2-2.5
		c0.9-0.7,2-1.2,3.2-1.6c1.2-0.4,2.5-0.5,3.9-0.5c0.7,0,1.4,0,2.1,0.1c0.7,0.1,1.4,0.2,2,0.3c0.6,0.2,1.2,0.3,1.8,0.5
		c0.6,0.2,1,0.4,1.3,0.6c0.4,0.2,0.7,0.5,0.9,0.8c0.2,0.2,0.3,0.6,0.3,1v1.4c0,0.6-0.2,1-0.7,1c-0.2,0-0.6-0.1-1.2-0.4
		c-1.8-0.8-3.7-1.2-5.9-1.2c-1.8,0-3.1,0.3-4.1,0.9c-1,0.6-1.4,1.5-1.4,2.7c0,0.9,0.3,1.6,0.9,2.2c0.6,0.6,1.8,1.2,3.4,1.7l4.4,1.4
		c2.2,0.7,3.8,1.7,4.8,3s1.4,2.7,1.4,4.3c0,1.3-0.3,2.5-0.8,3.6c-0.6,1-1.3,2-2.2,2.7c-1,0.8-2.1,1.3-3.4,1.7
		C85,53.4,83.5,53.7,81.9,53.7L81.9,53.7z"/>
	<g>
		<path class="st1" d="M87.8,68.6c-10.1,7.5-24.8,11.5-37.5,11.5c-17.7,0-33.7-6.6-45.8-17.5c-1-0.9-0.1-2,1-1.4
			c13.1,7.6,29.1,12.2,45.8,12.2c11.2,0,23.6-2.3,34.9-7.1C88,65.5,89.4,67.4,87.8,68.6L87.8,68.6z"/>
		<path class="st1" d="M92,63.8c-1.3-1.7-8.6-0.8-11.9-0.4c-1,0.1-1.1-0.7-0.2-1.4c5.8-4.1,15.3-2.9,16.4-1.5
			c1.1,1.4-0.3,10.9-5.7,15.5c-0.8,0.7-1.6,0.3-1.3-0.6C90.5,72.3,93.3,65.4,92,63.8L92,63.8z"/>
	</g>
</g>
</svg>
