<?xml version="1.0" encoding="utf-8"?>
<!-- Generator: Adobe Illustrator 23.0.1, SVG Export Plug-In . SVG Version: 6.00 Build 0)  -->
<svg version="1.1" id="Layer_1" xmlns="http://www.w3.org/2000/svg" xmlns:xlink="http://www.w3.org/1999/xlink" x="0px" y="0px"
	 viewBox="0 0 100 100" style="enable-background:new 0 0 100 100;" xml:space="preserve">
<style type="text/css">
	.st0{fill:url(#SVGID_1_);}
	.st1{fill:#0078D4;}
	.st2{fill:url(#SVGID_2_);}
	.st3{fill:url(#SVGID_3_);}
</style>
<g>
	
		<linearGradient id="SVGID_1_" gradientUnits="userSpaceOnUse" x1="-1557.2906" y1="-638.5179" x2="-1572.3425" y2="-682.9849" gradientTransform="matrix(1.5625 0 0 -1.5625 2478.5085 -978.2048)">
		<stop  offset="0" style="stop-color:#114A8B"/>
		<stop  offset="1" style="stop-color:#0669BC"/>
	</linearGradient>
	<path class="st0" d="M37,14.1h22.6L36.1,83.8c-0.5,1.5-1.9,2.5-3.4,2.5H15.1c-2,0-3.6-1.6-3.6-3.6c0-0.4,0.1-0.8,0.2-1.2l21.9-64.9
		C34.1,15.1,35.4,14.1,37,14.1L37,14.1L37,14.1z"/>
	<path class="st1" d="M69.9,60.9H34c-0.9,0-1.7,0.7-1.7,1.7c0,0.5,0.2,0.9,0.5,1.2l23.1,21.5c0.7,0.6,1.6,1,2.5,1h20.3L69.9,60.9z"
		/>
	
		<linearGradient id="SVGID_2_" gradientUnits="userSpaceOnUse" x1="-1552.5889" y1="-659.2402" x2="-1556.0706" y2="-660.4174" gradientTransform="matrix(1.5625 0 0 -1.5625 2478.5085 -978.2048)">
		<stop  offset="0" style="stop-color:#000000;stop-opacity:0.3"/>
		<stop  offset="7.100000e-02" style="stop-color:#000000;stop-opacity:0.2"/>
		<stop  offset="0.321" style="stop-color:#000000;stop-opacity:0.1"/>
		<stop  offset="0.623" style="stop-color:#000000;stop-opacity:5.000000e-02"/>
		<stop  offset="1" style="stop-color:#000000;stop-opacity:0"/>
	</linearGradient>
	<path class="st2" d="M37,14.1c-1.6,0-3,1-3.4,2.5L11.7,81.4C11,83.3,12,85.4,13.9,86c0.4,0.1,0.8,0.2,1.2,0.2h18.1
		c1.4-0.2,2.5-1.2,3-2.5l4.4-12.9l15.6,14.5c0.7,0.5,1.5,0.8,2.3,0.8h20.3l-8.9-25.4l-25.9,0l15.9-46.7L37,14.1L37,14.1z"/>
	
		<linearGradient id="SVGID_3_" gradientUnits="userSpaceOnUse" x1="-1554.3954" y1="-637.1804" x2="-1537.8728" y2="-681.1994" gradientTransform="matrix(1.5625 0 0 -1.5625 2478.5085 -978.2048)">
		<stop  offset="0" style="stop-color:#3CCBF4"/>
		<stop  offset="1" style="stop-color:#2892DF"/>
	</linearGradient>
	<path class="st3" d="M65.9,16.6c-0.5-1.5-1.9-2.5-3.4-2.5H37.3c1.5,0,2.9,1,3.4,2.5l21.9,64.9c0.6,1.9-0.4,3.9-2.3,4.6
		c-0.4,0.1-0.8,0.2-1.2,0.2h25.2c2,0,3.6-1.6,3.6-3.6c0-0.4-0.1-0.8-0.2-1.2L65.9,16.6L65.9,16.6z"/>
</g>
</svg>
