<?xml version="1.0" encoding="utf-8"?>
<!-- Generator: Adobe Illustrator 23.0.1, SVG Export Plug-In . SVG Version: 6.00 Build 0)  -->
<svg version="1.1" id="Layer_1" xmlns="http://www.w3.org/2000/svg" xmlns:xlink="http://www.w3.org/1999/xlink" x="0px" y="0px"
	 viewBox="0 0 100 100" style="enable-background:new 0 0 100 100;" xml:space="preserve">
<style type="text/css">
	.st0{fill:#FFFFFF;}
	.st1{fill:#3F3D56;}
	.st2{fill:#252F3E;}
	.st3{fill-rule:evenodd;clip-rule:evenodd;fill:#FF9900;}
</style>
<g>
	<g>
		<path class="st0" d="M20.4,7.7h58.3c9.9,0,17.9,8,17.9,17.9v46.8c0,9.9-8,17.9-17.9,17.9H20.4c-9.9,0-17.9-8-17.9-17.9V25.6
			C2.5,15.7,10.5,7.7,20.4,7.7L20.4,7.7z"/>
		<path class="st1" d="M2.1,72.4V25.6c0-10.1,8.2-18.3,18.3-18.3h58.3C88.8,7.3,97,15.5,97,25.6v46.8c0,10.1-8.2,18.3-18.3,18.3
			H20.4C10.3,90.7,2.1,82.5,2.1,72.4z M20.4,8.1C10.7,8.1,2.9,16,2.9,25.6v46.8c0,9.6,7.8,17.5,17.5,17.5h58.3
			c9.6,0,17.5-7.8,17.5-17.5V25.6c0-9.6-7.8-17.5-17.5-17.5L20.4,8.1L20.4,8.1z"/>
	</g>
	<g>
		<path class="st2" d="M37.9,49.7c0,0.7,0.1,1.2,0.2,1.6c0.1,0.4,0.3,0.8,0.6,1.3c0.1,0.1,0.1,0.3,0.1,0.4c0,0.2-0.1,0.4-0.3,0.5
			l-1.1,0.7c-0.2,0.1-0.3,0.2-0.5,0.2c-0.2,0-0.4-0.1-0.5-0.2c-0.2-0.3-0.5-0.6-0.6-0.8c-0.2-0.3-0.4-0.6-0.6-1
			c-1.4,1.6-3.1,2.4-5.2,2.4c-1.5,0-2.7-0.4-3.6-1.3c-0.9-0.9-1.3-2-1.3-3.4c0-1.5,0.5-2.7,1.6-3.7c1.1-0.9,2.5-1.4,4.3-1.4
			c0.6,0,1.2,0.1,1.9,0.1c0.7,0.1,1.3,0.2,2,0.4v-1.3c0-1.3-0.3-2.3-0.8-2.8c-0.6-0.6-1.5-0.8-2.9-0.8c-0.6,0-1.3,0.1-1.9,0.2
			c-0.7,0.2-1.3,0.4-1.9,0.6c-0.3,0.1-0.5,0.2-0.6,0.2c-0.1,0-0.2,0.1-0.3,0.1c-0.2,0-0.4-0.2-0.4-0.6v-0.9c0-0.3,0-0.5,0.1-0.6
			c0.1-0.1,0.2-0.2,0.5-0.4c0.6-0.3,1.4-0.6,2.2-0.8c0.9-0.2,1.8-0.3,2.8-0.3c2.1,0,3.7,0.5,4.7,1.4c1,1,1.5,2.4,1.5,4.4L37.9,49.7
			L37.9,49.7L37.9,49.7z M30.7,52.4c0.6,0,1.2-0.1,1.8-0.3c0.6-0.2,1.2-0.6,1.7-1.1c0.3-0.3,0.5-0.7,0.6-1.1
			c0.1-0.4,0.2-0.9,0.2-1.5v-0.7c-0.5-0.1-1.1-0.2-1.6-0.3c-0.6-0.1-1.1-0.1-1.7-0.1c-1.2,0-2.1,0.2-2.6,0.7c-0.6,0.5-0.9,1.2-0.9,2
			c0,0.8,0.2,1.5,0.7,1.9C29.2,52.2,29.9,52.4,30.7,52.4C30.7,52.4,30.7,52.4,30.7,52.4z M44.9,54.3c-0.3,0-0.5-0.1-0.7-0.2
			c-0.1-0.1-0.3-0.4-0.4-0.7l-4.2-13.7c-0.1-0.4-0.2-0.6-0.2-0.7c0-0.3,0.1-0.4,0.4-0.4h1.7c0.3,0,0.6,0.1,0.7,0.2
			c0.1,0.1,0.2,0.4,0.4,0.7l3,11.8l2.8-11.8c0.1-0.4,0.2-0.6,0.3-0.7c0.1-0.1,0.4-0.2,0.7-0.2H51c0.3,0,0.6,0.1,0.7,0.2
			c0.1,0.1,0.3,0.4,0.3,0.7l2.8,11.9l3.1-11.9c0.1-0.4,0.2-0.6,0.4-0.7c0.1-0.1,0.4-0.2,0.7-0.2h1.7c0.3,0,0.4,0.1,0.4,0.4
			c0,0.1,0,0.2,0,0.3c0,0.1-0.1,0.2-0.1,0.4l-4.3,13.7c-0.1,0.4-0.2,0.6-0.4,0.7s-0.4,0.2-0.7,0.2H54c-0.3,0-0.6-0.1-0.7-0.2
			s-0.3-0.4-0.3-0.7L50.2,42l-2.7,11.4c-0.1,0.4-0.2,0.6-0.3,0.7c-0.1,0.1-0.4,0.2-0.7,0.2L44.9,54.3C44.9,54.3,44.9,54.3,44.9,54.3
			z M67.7,54.8c-0.9,0-1.8-0.1-2.7-0.3c-0.9-0.2-1.6-0.4-2-0.7c-0.3-0.2-0.5-0.3-0.6-0.5c-0.1-0.2-0.1-0.3-0.1-0.5v-0.9
			c0-0.4,0.1-0.6,0.4-0.6c0.1,0,0.2,0,0.3,0.1c0.1,0,0.3,0.1,0.4,0.2c0.6,0.3,1.3,0.5,2,0.6c0.7,0.1,1.4,0.2,2.1,0.2
			c1.1,0,2-0.2,2.6-0.6c0.6-0.4,0.9-1,0.9-1.7c0-0.5-0.2-0.9-0.5-1.2c-0.3-0.3-0.9-0.6-1.8-0.9l-2.6-0.8c-1.3-0.4-2.3-1-2.8-1.8
			c-0.6-0.8-0.9-1.7-0.9-2.6c0-0.7,0.2-1.4,0.5-2c0.3-0.6,0.7-1.1,1.3-1.5c0.5-0.4,1.1-0.7,1.8-0.9s1.5-0.3,2.2-0.3
			c0.4,0,0.8,0,1.2,0.1c0.4,0.1,0.8,0.1,1.2,0.2c0.4,0.1,0.7,0.2,1,0.3c0.3,0.1,0.6,0.2,0.7,0.3c0.2,0.1,0.4,0.3,0.5,0.4
			c0.1,0.1,0.2,0.3,0.2,0.6v0.8c0,0.4-0.1,0.6-0.4,0.6c-0.1,0-0.4-0.1-0.7-0.2c-1-0.5-2.1-0.7-3.4-0.7c-1,0-1.8,0.2-2.4,0.5
			c-0.6,0.3-0.8,0.9-0.8,1.6c0,0.5,0.2,0.9,0.5,1.3c0.4,0.3,1,0.7,2,1l2.5,0.8c1.3,0.4,2.2,1,2.8,1.7s0.8,1.6,0.8,2.5
			c0,0.8-0.2,1.5-0.5,2.1c-0.3,0.6-0.7,1.1-1.3,1.6c-0.6,0.4-1.2,0.8-2,1C69.5,54.7,68.7,54.8,67.7,54.8L67.7,54.8z"/>
		<g>
			<path class="st3" d="M71.1,63.4C65.3,67.7,56.8,70,49.5,70C39.3,70,30,66.2,23.1,60c-0.6-0.5-0.1-1.2,0.6-0.8
				c7.5,4.4,16.8,7,26.4,7c6.5,0,13.6-1.3,20.2-4.1C71.2,61.6,72.1,62.7,71.1,63.4L71.1,63.4z"/>
			<path class="st3" d="M73.5,60.7c-0.7-1-4.9-0.5-6.8-0.2c-0.6,0.1-0.7-0.4-0.1-0.8c3.3-2.3,8.8-1.7,9.5-0.9
				c0.6,0.8-0.2,6.3-3.3,8.9c-0.5,0.4-0.9,0.2-0.7-0.3C72.7,65.6,74.3,61.6,73.5,60.7L73.5,60.7z"/>
		</g>
	</g>
</g>
</svg>
