<svg id="Layer_1" data-name="Layer 1" xmlns="http://www.w3.org/2000/svg" viewBox="0 0 388.2 75.27">
  <defs>
    <style>
      .cls-1 {
        fill: #662d91;
      }

      .cls-2 {
        fill: #fabd13;
      }

      .cls-3 {
        font-size: 13.17px;
        fill: #333;
        font-family: QuicksandBold-Regular, Quicksand;
        letter-spacing: -0.06em;
      }

      .cls-4 {
        letter-spacing: -0.07em;
      }

      .cls-5 {
        letter-spacing: -0.03em;
      }

      .cls-6 {
        letter-spacing: -0.08em;
      }

      .cls-7 {
        letter-spacing: -0.06em;
      }

      .cls-8 {
        letter-spacing: -0.07em;
      }

      .cls-9 {
        letter-spacing: -0.08em;
      }

      .cls-10 {
        letter-spacing: -0.09em;
      }

      .cls-11 {
        letter-spacing: -0.08em;
      }

      .cls-12 {
        letter-spacing: -0.08em;
      }
    </style>
  </defs>
  <title>contact.logo</title>
  <g>
    <g>
      <path class="cls-1" d="M100.68,39.27a15.05,15.05,0,0,0-22.62-13V21.48a2,2,0,0,0-2-2H72.53a2,2,0,0,0-2,2v4.76a15,15,0,0,0-22.59,13,15.05,15.05,0,0,0,30.1.38h0v-.38h0a7.53,7.53,0,1,1,15.06,0ZM63,46.8a7.53,7.53,0,1,1,7.53-7.53A7.53,7.53,0,0,1,63,46.8Z" transform="translate(-47.94 -15.7)"/>
      <path class="cls-1" d="M93.15,39.28v13a2,2,0,0,0,2,2h3.53a2,2,0,0,0,2-2V39.27H93.15Z" transform="translate(-47.94 -15.7)"/>
      <circle class="cls-1" cx="37.76" cy="23.44" r="3.96"/>
    </g>
    <path class="cls-2" d="M190.41,38.68h0a15.07,15.07,0,1,0-7.51,13.41v4.33a7.53,7.53,0,0,1-15.06,0h0a1.14,1.14,0,0,0-1.14-1.13h-5.25a1.14,1.14,0,0,0-1.14,1.13h0a15.06,15.06,0,0,0,30.12,0h0Zm-15.06,7.91a7.53,7.53,0,1,1,7.53-7.53A7.53,7.53,0,0,1,175.35,46.59Z" transform="translate(-47.94 -15.7)"/>
    <path class="cls-2" d="M242.51,39.27h0a1.14,1.14,0,0,0-1.14-1.14h-5.25A1.15,1.15,0,0,0,235,39.27h0a7.53,7.53,0,0,1-15.06.07V39h4.24a2,2,0,0,0,2-2V33.48a2,2,0,0,0-2-2h-4.24V20.76a1.89,1.89,0,0,0-2-1.76h-3.53a1.9,1.9,0,0,0-2,1.76V31.48h-4.23a2,2,0,0,0-2,2V37a2,2,0,0,0,2,2h4.23v.26h0v.07a15.06,15.06,0,0,0,30.12-.07Z" transform="translate(-47.94 -15.7)"/>
    <path class="cls-2" d="M276.56,39.41c0-.15,0-.29,0-.44A15.08,15.08,0,1,0,269,52v0a2,2,0,0,0,2,2h3.53a2,2,0,0,0,2-2V39.41Zm-15,7.09A7.53,7.53,0,1,1,269.05,39,7.53,7.53,0,0,1,261.52,46.5Z" transform="translate(-47.94 -15.7)"/>
    <path class="cls-1" d="M322.11,38.06a15,15,0,0,0-30.08,0h0v.44h0v13a2,2,0,0,0,2,2h3.53a2,2,0,0,0,2-2v-13h0a7.53,7.53,0,0,1,15.06,0h0v13a2,2,0,0,0,2,2h3.53a2,2,0,0,0,2-2V38.06Z" transform="translate(-47.94 -15.7)"/>
    <path class="cls-1" d="M356.2,39V26.15a2,2,0,0,0-2-2h-3.53a2,2,0,0,0-2,2V38.59h0V39h0a7.53,7.53,0,0,1-15.06,0h0V26.15a2,2,0,0,0-2-2h-3.53a2,2,0,0,0-2,2V39h0a15,15,0,0,0,22.59,13v4.51h0a7.53,7.53,0,0,1-15.06,0h0a1.14,1.14,0,0,0-1.13-1.1h-5.25a1.13,1.13,0,0,0-1.13,1.1h0v0h0a15.06,15.06,0,0,0,30.12,0h0V39Z" transform="translate(-47.94 -15.7)"/>
    <path class="cls-2" d="M142.54,19.48H139a2,2,0,0,0-2,2v4.76a15,15,0,0,0-22.59,13,15.05,15.05,0,0,0,30.1.38h0V21.48A2,2,0,0,0,142.54,19.48ZM129.48,46.8A7.53,7.53,0,1,1,137,39.27,7.53,7.53,0,0,1,129.48,46.8Z" transform="translate(-47.94 -15.7)"/>
    <g>
      <rect class="cls-2" x="100.87" y="11.99" width="7.53" height="26.64" rx="2"/>
      <path class="cls-2" d="M152.25,26.6a3.79,3.79,0,1,0-3.76-3.79A3.78,3.78,0,0,0,152.25,26.6Z" transform="translate(-47.94 -15.7)"/>
    </g>
    <g>
      <rect class="cls-1" x="312.53" y="11.99" width="7.53" height="26.64" rx="2"/>
      <path class="cls-1" d="M363.91,26.6a3.79,3.79,0,1,0-3.76-3.79A3.78,3.78,0,0,0,363.91,26.6Z" transform="translate(-47.94 -15.7)"/>
    </g>
    <path class="cls-1" d="M402.07,38.53h0v-.44h0a15.06,15.06,0,0,0-13.6-14.55l1.92-2.3a2,2,0,0,0-.26-2.82l-2.71-2.26a2,2,0,0,0-2.82.26l-5.1,6.13V20.42a2,2,0,0,0-2-2H374a2,2,0,0,0-2,2V31.59h0v6.5h0V52.28a2,2,0,0,0,2,2h3.53a2,2,0,0,0,2-2V49.42h0V38.53a7.53,7.53,0,0,1,15.06,0h0v13.8a2,2,0,0,0,2,2h3.53a2,2,0,0,0,2-2V38.53Z" transform="translate(-47.94 -15.7)"/>
    <path class="cls-1" d="M436.14,39a15.08,15.08,0,1,0-7.54,13v0a2,2,0,0,0,2,2h3.53a2,2,0,0,0,2-2V39.41h0C436.12,39.26,436.14,39.12,436.14,39ZM421.08,46.5A7.53,7.53,0,1,1,428.61,39,7.53,7.53,0,0,1,421.08,46.5Z" transform="translate(-47.94 -15.7)"/>
    <g>
      <rect class="cls-2" x="146.74" y="11.99" width="7.53" height="26.64" rx="2"/>
      <path class="cls-2" d="M198.12,26.6a3.79,3.79,0,1,0-3.76-3.79A3.78,3.78,0,0,0,198.12,26.6Z" transform="translate(-47.94 -15.7)"/>
    </g>
    <rect class="cls-2" x="232.59" y="3.3" width="7.53" height="35.43" rx="2"/>
  </g>
  <text class="cls-3" transform="translate(228.57 72.8)">m<tspan class="cls-4" x="11.73" y="0">a</tspan><tspan x="18.96" y="0">n</tspan><tspan class="cls-5" x="26.25" y="0">a</tspan><tspan x="34.07" y="0">ged s</tspan><tspan class="cls-6" x="65.95" y="0">e</tspan><tspan class="cls-7" x="72.91" y="0">rvi</tspan><tspan class="cls-8" x="87.68" y="0">c</tspan><tspan x="94.21" y="0">es p</tspan><tspan class="cls-9" x="118.2" y="0">r</tspan><tspan class="cls-10" x="122.86" y="0">o</tspan><tspan x="129.9" y="0">vi</tspan><tspan class="cls-11" x="139.69" y="0">d</tspan><tspan class="cls-12" x="147.39" y="0">e</tspan><tspan x="154.35" y="0">r</tspan></text>
</svg>
