<?xml version="1.0" encoding="utf-8"?>
<!-- Generator: Adobe Illustrator 23.0.1, SVG Export Plug-In . SVG Version: 6.00 Build 0)  -->
<svg version="1.1" id="Layer_1" xmlns="http://www.w3.org/2000/svg" xmlns:xlink="http://www.w3.org/1999/xlink" x="0px" y="0px"
	 viewBox="0 0 100 100" style="enable-background:new 0 0 100 100;" xml:space="preserve">
<style type="text/css">
	.st0{fill:#EA4335;}
	.st1{fill:#4285F4;}
	.st2{fill:#34A853;}
	.st3{fill:#FBBC05;}
</style>
<g>
	<path class="st0" d="M60.7,35.2h2.5l7.1-7.1l0.3-3c-13.2-11.7-33.4-10.4-45.1,2.8c-3.2,3.7-5.6,8-6.9,12.8c0.8-0.3,1.7-0.4,2.5-0.1
		l14.2-2.3c0,0,0.7-1.2,1.1-1.1C42.8,30.1,53.5,29.3,60.7,35.2L60.7,35.2L60.7,35.2z"/>
	<path class="st1" d="M80.5,40.7c-1.6-6-5-11.4-9.7-15.6l-10,10c4.2,3.4,6.6,8.6,6.5,14.1v1.8c4.9,0,8.9,4,8.9,8.9s-4,8.9-8.9,8.9
		H49.6l-1.8,1.8v10.7l1.8,1.8h17.8C80.1,83,90.5,72.7,90.6,60C90.7,52.3,86.9,45,80.5,40.7L80.5,40.7z"/>
	<path class="st2" d="M31.8,82.8h17.8V68.6H31.8c-1.3,0-2.5-0.3-3.7-0.8l-2.5,0.8l-7.2,7.1l-0.6,2.5C21.8,81.2,26.7,82.8,31.8,82.8z
		"/>
	<path class="st3" d="M31.8,36.7c-12.8,0.1-23,10.5-23,23.2c0,7.1,3.4,13.8,9,18.2l10.3-10.3c-4.5-2-6.5-7.3-4.4-11.8
		s7.3-6.5,11.8-4.4c2,0.9,3.5,2.5,4.4,4.4l10.3-10.3C45.8,40,39,36.6,31.8,36.7L31.8,36.7z"/>
</g>
</svg>
