<svg id="Layer_1" data-name="Layer 1" xmlns="http://www.w3.org/2000/svg" viewBox="0 0 336.72 55.92">
  <defs>
    <style>
      .cls-1 {
        fill: #fff;
      }

      .cls-2 {
        fill: #662d91;
      }
    </style>
  </defs>
  <title>logo</title>
  <path class="cls-1" d="M160.14,44.68h0a15.07,15.07,0,1,0-7.51,13.41v4.33a7.53,7.53,0,0,1-15.06,0h0a1.13,1.13,0,0,0-1.14-1.13h-5.24A1.13,1.13,0,0,0,130,62.42h0a15.06,15.06,0,0,0,30.12,0h0Zm-15.06,7.91a7.53,7.53,0,1,1,7.53-7.53A7.53,7.53,0,0,1,145.08,52.59Z" transform="translate(-81.42 -21.7)"/>
  <path class="cls-1" d="M215,45.27h0a1.14,1.14,0,0,0-1.14-1.14h-5.24a1.14,1.14,0,0,0-1.14,1.14h0a7.53,7.53,0,0,1-15.05.07V45h4.23a2,2,0,0,0,2-2V39.48a2,2,0,0,0-2-2h-4.23V26.76a1.9,1.9,0,0,0-2-1.76h-3.53a1.89,1.89,0,0,0-2,1.76V37.48h-4.24a2,2,0,0,0-2,2V43a2,2,0,0,0,2,2h4.24v.26h0s0,0,0,.07A15.06,15.06,0,0,0,215,45.27Z" transform="translate(-81.42 -21.7)"/>
  <path class="cls-1" d="M250.38,45.41c0-.15,0-.29,0-.44a15.08,15.08,0,1,0-7.54,13v0a2,2,0,0,0,2,2h3.53a2,2,0,0,0,2-2V45.41Zm-15,7.09A7.53,7.53,0,1,1,242.87,45,7.53,7.53,0,0,1,235.34,52.5Z" transform="translate(-81.42 -21.7)"/>
  <path class="cls-2" d="M298.65,44.06a15,15,0,0,0-30.07,0h0v.44h0v13a2,2,0,0,0,2,2h3.53a2,2,0,0,0,2-2v-13h0a7.53,7.53,0,1,1,15.06,0h0v13a2,2,0,0,0,2,2h3.53a2,2,0,0,0,2-2V44.06Z" transform="translate(-81.42 -21.7)"/>
  <path class="cls-2" d="M334.11,45V32.15a2,2,0,0,0-2-2h-3.53a2,2,0,0,0-2,2V44.59h0V45h0a7.53,7.53,0,1,1-15.06,0h0V32.15a2,2,0,0,0-2-2H306a2,2,0,0,0-2,2V45h0a15,15,0,0,0,22.59,13v4.51h0a7.53,7.53,0,1,1-15.06,0h0a1.14,1.14,0,0,0-1.13-1.1h-5.25a1.13,1.13,0,0,0-1.13,1.1h0v0h0a15.06,15.06,0,0,0,30.12,0h0V45Z" transform="translate(-81.42 -21.7)"/>
  <path class="cls-1" d="M109.54,25.48H106a2,2,0,0,0-2,2v4.76a15,15,0,0,0-22.59,13,15.05,15.05,0,0,0,30.1.38h0V27.48A2,2,0,0,0,109.54,25.48ZM96.48,52.8A7.53,7.53,0,1,1,104,45.27,7.53,7.53,0,0,1,96.48,52.8Z" transform="translate(-81.42 -21.7)"/>
  <g>
    <rect class="cls-1" x="35.75" y="11.99" width="7.53" height="26.64" rx="2"/>
    <path class="cls-1" d="M120.62,32.6a3.79,3.79,0,1,0-3.77-3.79A3.77,3.77,0,0,0,120.62,32.6Z" transform="translate(-81.42 -21.7)"/>
  </g>
  <g>
    <rect class="cls-2" x="258.32" y="11.99" width="7.53" height="26.64" rx="2"/>
    <path class="cls-2" d="M343.19,32.6a3.79,3.79,0,1,0-3.77-3.79A3.77,3.77,0,0,0,343.19,32.6Z" transform="translate(-81.42 -21.7)"/>
  </g>
  <path class="cls-2" d="M382.71,44.53h0v-.44h0a15.05,15.05,0,0,0-13.59-14.55l1.92-2.3a2,2,0,0,0-.26-2.82L368,22.16a2,2,0,0,0-2.82.26l-5.11,6.13V26.42a2,2,0,0,0-2-2h-3.53a2,2,0,0,0-2,2V37.59h0v6.5h0V58.28a2,2,0,0,0,2,2h3.53a2,2,0,0,0,2-2V55.42h0V44.53a7.54,7.54,0,0,1,15.07,0h0v13.8a2,2,0,0,0,2,2h3.53a2,2,0,0,0,2-2V44.53Z" transform="translate(-81.42 -21.7)"/>
  <path class="cls-2" d="M418.14,45a15.08,15.08,0,1,0-7.54,13v0a2,2,0,0,0,2,2h3.53a2,2,0,0,0,2-2V45.41h0C418.12,45.26,418.14,45.12,418.14,45ZM403.08,52.5A7.53,7.53,0,1,1,410.61,45,7.53,7.53,0,0,1,403.08,52.5Z" transform="translate(-81.42 -21.7)"/>
  <g>
    <rect class="cls-1" x="84.35" y="11.99" width="7.53" height="26.64" rx="2"/>
    <path class="cls-1" d="M169.21,32.6a3.79,3.79,0,1,0-3.76-3.79A3.78,3.78,0,0,0,169.21,32.6Z" transform="translate(-81.42 -21.7)"/>
  </g>
  <rect class="cls-1" x="174.29" y="3.3" width="7.53" height="35.43" rx="2"/>
</svg>
